<svg data-r2k="true" data-qa="presence_indicator" aria-hidden="false" title="Away, notifications snoozed" aria-label="Away, notifications snoozed" data-qa-type="status-member-dnd" data-qa-presence-self="false" data-qa-presence-active="false" data-qa-presence-dnd="true" viewBox="0 0 20 20" class="is-inline" style="--s: 20px;"><path fill="currentColor" fill-rule="evenodd" d="M11.25 3.5a.75.75 0 0 0 0 1.5h1.847l-2.411 2.756A.75.75 0 0 0 11.25 9h3.5a.75.75 0 0 0 0-1.5h-1.847l2.411-2.756A.75.75 0 0 0 14.75 3.5zM7 10a3 3 0 0 1 3-3V5.5a4.5 4.5 0 1 0 4.5 4.5H13a3 3 0 1 1-6 0" clip-rule="evenodd"></path></svg>