<svg data-r2k="true" data-qa="presence_indicator" aria-hidden="false" title="Active, notifications snoozed" aria-label="Active, notifications snoozed" data-qa-type="status-member-dnd-filled" data-qa-presence-self="true" data-qa-presence-active="true" data-qa-presence-dnd="true" viewBox="0 0 20 20" class=""><path fill="currentColor" fill-rule="evenodd" d="M11.25 3.5a.75.75 0 0 0 0 1.5h1.847l-2.411 2.756A.75.75 0 0 0 11.25 9h3.5a.75.75 0 0 0 0-1.5h-1.847l2.411-2.756A.75.75 0 0 0 14.75 3.5zM9.557 6.768C10.18 6.055 10 5.5 9.406 5.54a4.5 4.5 0 1 0 5.067 4.96H11.25a2.25 2.25 0 0 1-1.693-3.73" clip-rule="evenodd"></path></svg>