<svg data-r2k="true" data-qa="star" aria-hidden="true" viewBox="0 0 20 20" class="" style="--s: 16px;"><path fill="currentColor" fill-rule="evenodd" d="M9.044 4.29c-.393.923-.676 2.105-.812 3.065a.75.75 0 0 1-.825.64l-.25-.027c-1.066-.12-2.106-.236-2.942-.202-.45.018-.773.079-.98.167-.188.08-.216.15-.227.187-.013.042-.027.148.112.37.143.229.4.497.77.788.734.579 1.755 1.128 2.66 1.54a.75.75 0 0 1 .35 1.036c-.466.87-1.022 2.125-1.32 3.239-.15.56-.223 1.04-.208 1.396.015.372.113.454.124.461l.003.001a.2.2 0 0 0 .042.006.9.9 0 0 0 .297-.06c.297-.1.678-.319 1.116-.64.87-.635 1.8-1.55 2.493-2.275a.75.75 0 0 1 1.085 0c.692.724 1.626 1.639 2.5 2.275.44.32.822.539 1.12.64a.9.9 0 0 0 .3.06q.038-.003.044-.006h.002c.011-.009.109-.09.123-.46.013-.357-.06-.836-.212-1.397-.303-1.114-.864-2.368-1.33-3.24a.75.75 0 0 1 .35-1.037c.903-.41 1.92-.96 2.652-1.54.369-.292.625-.56.768-.787.139-.223.124-.329.112-.37-.012-.038-.039-.107-.226-.186-.206-.088-.527-.149-.976-.167-.835-.034-1.874.082-2.941.201l-.246.027a.75.75 0 0 1-.825-.64c-.136-.96-.42-2.142-.813-3.064-.198-.464-.405-.82-.605-1.048-.204-.232-.319-.243-.34-.243s-.135.01-.34.243c-.2.228-.407.584-.605 1.048m-.522-2.036c.343-.39.833-.754 1.467-.754s1.125.363 1.467.754c.348.396.63.914.858 1.449.359.84.627 1.83.798 2.723.913-.1 1.884-.192 2.708-.158.521.021 1.052.094 1.503.285.47.2.902.556 1.076 1.14.177.597-.004 1.153-.279 1.592-.271.434-.676.826-1.108 1.168-.662.524-1.482 1.003-2.256 1.392.41.85.836 1.884 1.1 2.856.17.625.286 1.271.264 1.846-.021.56-.182 1.218-.749 1.623-.555.398-1.205.316-1.7.148-.51-.173-1.034-.493-1.523-.849-.754-.55-1.523-1.261-2.158-1.896-.634.634-1.4 1.346-2.15 1.895-.487.356-1.01.677-1.518.85-.495.168-1.144.25-1.699-.148-.565-.405-.727-1.062-.75-1.62-.024-.574.09-1.22.257-1.846.261-.972.684-2.007 1.093-2.858-.775-.389-1.597-.867-2.262-1.39-.433-.342-.84-.734-1.111-1.168-.276-.44-.457-.997-.28-1.595.174-.585.608-.941 1.079-1.141.45-.191.983-.264 1.505-.285.826-.033 1.799.059 2.713.159.17-.893.439-1.882.797-2.723.228-.535.51-1.053.858-1.449" clip-rule="evenodd"></path></svg>